<?xml version="1.0" encoding="UTF-8"?>
<!DOCTYPE svg PUBLIC "-//W3C//DTD SVG 1.1//EN" "http://www.w3.org/Graphics/SVG/1.1/DTD/svg11.dtd">
<!-- Creator: CorelDRAW -->
<svg xmlns="http://www.w3.org/2000/svg" xml:space="preserve" width="2000px" height="2000px" version="1.1" style="shape-rendering:geometricPrecision; text-rendering:geometricPrecision; image-rendering:optimizeQuality; fill-rule:evenodd; clip-rule:evenodd"
viewBox="0 0 2000 2000"
 xmlns:xlink="http://www.w3.org/1999/xlink"
 xmlns:xodm="http://www.corel.com/coreldraw/odm/2003">
 <defs>
  <style type="text/css">
   <![CDATA[
    .fil1 {fill:none}
    .fil0 {fill:white}
   ]]>
  </style>
   <clipPath id="id0">
    <path d="M1000 359.39c353.8,0 640.61,286.81 640.61,640.61 0,353.8 -286.81,640.61 -640.61,640.61 -353.8,0 -640.61,-286.81 -640.61,-640.61 0,-353.8 286.81,-640.61 640.61,-640.61zm0 90.14c304.01,0 550.47,246.46 550.47,550.47 0,304.02 -246.46,550.47 -550.47,550.47 -304.02,0 -550.47,-246.45 -550.47,-550.47 0,-304.01 246.45,-550.47 550.47,-550.47z"/>
   </clipPath>
 </defs>
 <g id="Layer_x0020_1">
  <metadata id="CorelCorpID_0Corel-Layer"/>
  <path class="fil0" d="M1296.14 1089.84c-71.89,-48.32 -205.31,69.77 -274.56,100.86 30.76,-12.85 62.46,-20.68 95.65,-15.56 51.43,9.04 86.55,67.09 139.81,86.19 26.19,9.4 40.5,3.75 55.05,-17.99 25.14,-37.55 6.06,-138.7 -15.95,-153.5z"/>
  <path class="fil0" d="M1126.05 763.08c-18.42,-30.66 -76.72,-84.86 -136.32,-38.72 -35.38,27.41 -143.48,230.1 -174.02,282.37 -3.79,6.49 -8.05,13.31 -12.54,20.39l0 0c9.95,29.89 17.1,47.17 50.68,52.69 26.03,4.28 56.5,-2.14 89.3,-13.2 -9.88,1.6 -12.57,-2.86 -5.37,-17.31 27.47,-55.09 51.6,-115.53 88.04,-164.16 38.58,-51.61 52.02,-87.53 126.24,-76.65l-26.01 -45.41z"/>
  <g>
  </g>
  <g style="clip-path:url(#id0)">
   <g>
    <g id="_105553443543200">
     <path class="fil0" d="M849.02 294.99l-63.2 0 282.53 420.08 163.58 -237.92 -148.71 -182.16 -48.33 0 -7.43 263.94 -178.44 -263.94zm342.01 185.87l-115.24 -144.98 -22.31 256.51 29.74 33.46 107.81 -144.99z"/>
     <path class="fil0" d="M452.38 630.27l282.6 -248.77 396.06 666.71 -252.76 -43.78 127.37 256.73 260.72 -145.28 -525.42 -815.98 -348.28 342.31 113.44 135.34 -199.02 109.46 133.34 330.37 193.05 -396.05 -181.1 -191.06zm565.21 565.22l-61.69 -137.33 203 29.86 21.89 37.81 -163.2 69.66zm-577.16 -97.52l-69.65 -187.08 163.19 -99.51 37.82 37.81 -131.36 248.78z"/>
     <path class="fil0" d="M504.49 635.84l222.78 -159.81 116.23 191.29 -242.15 -4.84 188.88 142.87 -278.47 612.63 215.51 -84.75 -79.91 -48.43 225.2 -552.1 142.86 234.89 -184.03 -31.48 -123.49 324.47 140.44 82.33 -481.87 191.3 329.32 -716.75 -191.3 -181.62zm438.29 278.47l-92.02 -16.95 33.9 -82.33 58.12 99.28zm-171.92 -288.15l-164.66 -4.84 111.38 -72.65 53.28 77.49z"/>
     <path class="fil0" d="M1267.67 760.24l158.47 220.37 -7.43 -646.26 -311.99 423.41 240.18 356.56 -366.46 220.37 -131.23 -289.7 -74.28 193.13 217.89 153.52 420.94 -272.37 -247.61 -378.84 193.13 -235.23 -91.61 255.04zm49.52 -9.91l66.85 -198.09 2.48 299.61 -69.33 -101.52zm-460.55 391.22l-37.15 94.1 113.9 79.23 -76.75 -173.33z"/>
     <path class="fil0" d="M1522.01 1228.63l-98.17 -196.33 158.4 -93.71 95.94 220.88 -31.24 354.74 -31.23 80.31 31.23 -8.92 0 31.23 -185.17 8.93 93.7 -22.31 87.01 -310.12 0 -51.31 -80.31 -189.64 -71.4 26.77 95.94 169.56 -78.09 316.81 -468.52 -147.25 394.89 -234.26 -13.38 196.33 -113.79 -51.31 -87.01 89.24 236.49 29 64.71 -218.64zm-339.13 185.18l-64.7 -6.7 158.41 -89.24 -93.71 95.94zm211.95 -102.63l-66.93 -17.85 69.17 -44.62 -2.24 62.47z"/>
     <path class="fil0" d="M930.77 1632.45l-140.55 -216.41 113.78 -42.39 6.69 127.17 93.71 -62.47 243.19 182.95 -2.24 -91.48 151.72 58.01 -33.47 44.62 -42.39 0 24.54 -31.23 -73.62 -29.01 0 58.01 -109.33 2.23 -147.25 -149.48 -24.54 153.94 -60.24 -4.46zm171.8 -2.23l-62.47 -80.32 -2.24 80.32 64.71 0zm-198.57 -84.78l78.09 -53.54 -17.85 133.86 -60.24 -80.32zm-13.39 -26.77l-55.77 -84.78 40.16 -13.39 15.61 98.17z"/>
     <polygon class="fil0" points="857.15,1623.53 754.52,1476.28 567.11,1625.76 663.05,1625.76 741.13,1547.67 790.22,1623.53 "/>
     <polygon class="fil0" points="464.48,1627.99 607.27,1514.21 312.77,1594.52 312.77,1625.76 464.48,1585.6 408.7,1627.99 "/>
     <polygon class="fil0" points="317.23,1237.55 319.46,1074.69 404.24,1273.25 319.46,1525.36 319.46,1288.87 330.62,1259.87 "/>
     <polygon class="fil0" points="1269.47,304.98 1155.21,300.53 1272.43,416.27 1365.92,302.02 1325.85,302.02 1294.69,342.08 1269.47,318.34 "/>
     <polygon class="fil0" points="1638.94,302.02 1468.3,302.02 1474.24,549.82 1647.84,414.79 1647.84,368.79 1511.33,466.72 1511.33,333.18 "/>
     <polygon class="fil0" points="1644.88,616.59 1644.88,506.79 1475.72,643.3 1475.72,938.58 1647.84,810.97 1649.33,759.04 1530.62,843.62 1521.72,730.84 1555.85,696.72 1647.84,753.1 1647.84,702.65 1589.98,667.04 "/>
     <polygon class="fil0" points="318.83,620.28 320.7,507.77 571.99,303.36 663.88,303.36 "/>
     <polygon class="fil0" points="319.77,419.63 321.64,371.81 421.03,301.49 470.73,301.49 "/>
     <polygon class="fil0" points="322.64,748.42 322.64,700.91 404.47,753.33 322.26,814.04 323.4,761.62 332.82,755.21 "/>
     <polygon class="fil0" points="1658.22,866.6 1630.29,885.4 1655,951.46 "/>
     <polygon class="fil0" points="959.76,304.55 927.72,304.15 979.79,383.86 993.01,303.35 966.97,303.75 965.77,312.97 "/>
    </g>
   </g>
  </g>
  <path class="fil1" d="M1000 359.39c353.8,0 640.61,286.81 640.61,640.61 0,353.8 -286.81,640.61 -640.61,640.61 -353.8,0 -640.61,-286.81 -640.61,-640.61 0,-353.8 286.81,-640.61 640.61,-640.61zm0 90.14c304.01,0 550.47,246.46 550.47,550.47 0,304.02 -246.46,550.47 -550.47,550.47 -304.02,0 -550.47,-246.45 -550.47,-550.47 0,-304.01 246.45,-550.47 550.47,-550.47z"/>
  <path class="fil0" d="M797.06 1035.16c-39.4,62.14 -97.23,144.65 -24.59,204.06 148.39,104.45 403.15,-238.15 525.94,-157 -96.81,-201.47 -325.18,26.26 -450.68,5.64 -33.57,-5.52 -40.72,-22.8 -50.67,-52.7z"/>
  <path class="fil0" d="M1034.51 888.17c24,-32.03 62.06,3.03 91.55,31.9 29.47,28.86 109.83,42.5 78.66,-17.02l-49.89 -87.1c-73.19,-11.15 -84.74,24.73 -120.32,72.22z"/>
  <path class="fil0" d="M811.38 1011.11c-1.2,1.98 -2.44,3.99 -3.71,6.03 1.27,-2.04 2.51,-4.05 3.71,-6.03z"/>
  <path class="fil0" d="M815.06 1004.93c-0.57,0.98 -1.15,1.97 -1.75,2.96 0.6,-1 1.18,-1.98 1.75,-2.96z"/>
 </g>
</svg>
