<?xml version="1.0" encoding="UTF-8"?>
<!DOCTYPE svg PUBLIC "-//W3C//DTD SVG 1.1//EN" "http://www.w3.org/Graphics/SVG/1.1/DTD/svg11.dtd">
<!-- Creator: CorelDRAW -->
<svg xmlns="http://www.w3.org/2000/svg" xml:space="preserve" width="57px" height="34px" version="1.1" style="shape-rendering:geometricPrecision; text-rendering:geometricPrecision; image-rendering:optimizeQuality; fill-rule:evenodd; clip-rule:evenodd"
viewBox="0 0 57 34"
 xmlns:xlink="http://www.w3.org/1999/xlink"
 xmlns:xodm="http://www.corel.com/coreldraw/odm/2003">
 <defs>
  <style type="text/css">
   <![CDATA[
    .fil1 {fill:none}
    .fil0 {fill:white}
   ]]>
  </style>
   <clipPath id="id0">
    <path d="M28.5 1.79c8.4,0 15.21,6.81 15.21,15.21 0,8.4 -6.81,15.21 -15.21,15.21 -8.4,0 -15.21,-6.81 -15.21,-15.21 0,-8.4 6.81,-15.21 15.21,-15.21zm0 2.14c7.22,0 13.07,5.85 13.07,13.07 0,7.22 -5.85,13.07 -13.07,13.07 -7.22,0 -13.07,-5.85 -13.07,-13.07 0,-7.22 5.85,-13.07 13.07,-13.07z"/>
   </clipPath>
 </defs>
 <g id="Layer_x0020_1">
  <metadata id="CorelCorpID_0Corel-Layer"/>
  <path class="fil0" d="M35.53 19.13c-1.71,-1.14 -4.87,1.66 -6.52,2.4 0.73,-0.31 1.48,-0.49 2.27,-0.37 1.22,0.21 2.06,1.59 3.32,2.04 0.62,0.23 0.96,0.09 1.31,-0.42 0.59,-0.89 0.14,-3.3 -0.38,-3.65z"/>
  <path class="fil0" d="M31.49 11.38c-0.44,-0.73 -1.82,-2.02 -3.23,-0.92 -0.84,0.65 -3.41,5.46 -4.13,6.7 -0.09,0.15 -0.2,0.32 -0.3,0.48l0 0c0.23,0.71 0.4,1.12 1.2,1.25 0.62,0.11 1.34,-0.05 2.12,-0.31 -0.23,0.04 -0.3,-0.07 -0.13,-0.41 0.66,-1.31 1.23,-2.74 2.09,-3.9 0.92,-1.22 1.24,-2.07 3,-1.82l-0.62 -1.07z"/>
  <g>
  </g>
  <g style="clip-path:url(#id0)">
   <g>
    <g id="_105553443708576">
     <path class="fil0" d="M24.92 0.27l-1.5 0 6.7 9.97 3.89 -5.65 -3.53 -4.32 -1.15 0 -0.18 6.26 -4.23 -6.26zm8.11 4.41l-2.73 -3.44 -0.53 6.08 0.71 0.8 2.55 -3.44z"/>
     <path class="fil0" d="M15.5 8.22l6.71 -5.9 9.4 15.82 -6 -1.03 3.02 6.09 6.19 -3.45 -12.47 -19.37 -8.27 8.13 2.7 3.21 -4.73 2.6 3.17 7.84 4.58 -9.4 -4.3 -4.54zm13.42 13.42l-1.47 -3.26 4.82 0.71 0.52 0.9 -3.87 1.65zm-13.7 -2.31l-1.66 -4.45 3.88 -2.36 0.9 0.9 -3.12 5.91z"/>
     <path class="fil0" d="M16.74 8.36l5.29 -3.8 2.76 4.54 -5.75 -0.11 4.48 3.39 -6.61 14.54 5.12 -2.01 -1.9 -1.15 5.35 -13.1 3.39 5.57 -4.37 -0.75 -2.93 7.71 3.33 1.95 -11.44 4.54 7.82 -17.01 -4.54 -4.31zm10.4 6.61l-2.18 -0.41 0.8 -1.95 1.38 2.36zm-4.08 -6.84l-3.91 -0.12 2.65 -1.72 1.26 1.84z"/>
     <path class="fil0" d="M34.85 11.31l3.77 5.23 -0.18 -15.34 -7.41 10.05 5.7 8.46 -8.69 5.23 -3.12 -6.87 -1.76 4.58 5.17 3.65 9.99 -6.47 -5.88 -8.99 4.59 -5.59 -2.18 6.06zm1.18 -0.24l1.59 -4.7 0.06 7.11 -1.65 -2.41zm-10.93 9.29l-0.89 2.23 2.71 1.88 -1.82 -4.11z"/>
     <path class="fil0" d="M40.89 22.43l-2.33 -4.66 3.76 -2.23 2.28 5.25 -0.74 8.42 -0.74 1.9 0.74 -0.21 0 0.74 -4.4 0.21 2.23 -0.53 2.06 -7.36 0 -1.21 -1.91 -4.51 -1.69 0.64 2.28 4.02 -1.86 7.52 -11.12 -3.49 9.38 -5.56 -0.32 4.66 -2.7 -1.22 -2.07 2.12 5.61 0.69 1.54 -5.19zm-8.05 4.39l-1.53 -0.16 3.75 -2.11 -2.22 2.27zm5.03 -2.43l-1.59 -0.43 1.65 -1.06 -0.06 1.49z"/>
     <path class="fil0" d="M26.86 32.01l-3.34 -5.13 2.7 -1.01 0.16 3.02 2.22 -1.48 5.78 4.34 -0.06 -2.17 3.61 1.37 -0.8 1.06 -1.01 0 0.59 -0.74 -1.75 -0.69 0 1.38 -2.6 0.05 -3.49 -3.55 -0.58 3.66 -1.43 -0.11zm4.07 -0.05l-1.48 -1.91 -0.05 1.91 1.53 0zm-4.71 -2.01l1.85 -1.27 -0.42 3.17 -1.43 -1.9zm-0.32 -0.64l-1.32 -2.01 0.95 -0.32 0.37 2.33z"/>
     <polygon class="fil0" points="25.11,31.8 22.67,28.31 18.22,31.85 20.5,31.85 22.36,30 23.52,31.8 "/>
     <polygon class="fil0" points="15.79,31.91 19.18,29.21 12.19,31.11 12.19,31.85 15.79,30.9 14.46,31.91 "/>
     <polygon class="fil0" points="12.29,22.64 12.35,18.77 14.36,23.49 12.35,29.47 12.35,23.86 12.61,23.17 "/>
     <polygon class="fil0" points="34.9,0.5 32.18,0.4 34.97,3.14 37.19,0.43 36.23,0.43 35.49,1.38 34.9,0.82 "/>
     <polygon class="fil0" points="43.67,0.43 39.62,0.43 39.76,6.31 43.88,3.11 43.88,2.02 40.64,4.34 40.64,1.17 "/>
     <polygon class="fil0" points="43.81,7.9 43.81,5.29 39.79,8.53 39.79,15.54 43.88,12.51 43.91,11.28 41.1,13.29 40.88,10.61 41.69,9.8 43.88,11.14 43.88,9.94 42.5,9.1 "/>
     <polygon class="fil0" points="12.33,7.99 12.38,5.32 18.34,0.46 20.52,0.46 "/>
     <polygon class="fil0" points="12.35,3.22 12.4,2.09 14.76,0.42 15.94,0.42 "/>
     <polygon class="fil0" points="12.42,11.03 12.42,9.9 14.36,11.15 12.41,12.59 12.44,11.34 12.66,11.19 "/>
     <polygon class="fil0" points="44.12,13.83 43.46,14.28 44.05,15.85 "/>
     <polygon class="fil0" points="27.54,0.49 26.78,0.48 28.02,2.38 28.33,0.46 27.72,0.47 27.69,0.69 "/>
    </g>
   </g>
  </g>
  <path class="fil1" d="M28.5 1.79c8.4,0 15.21,6.81 15.21,15.21 0,8.4 -6.81,15.21 -15.21,15.21 -8.4,0 -15.21,-6.81 -15.21,-15.21 0,-8.4 6.81,-15.21 15.21,-15.21zm0 2.14c7.22,0 13.07,5.85 13.07,13.07 0,7.22 -5.85,13.07 -13.07,13.07 -7.22,0 -13.07,-5.85 -13.07,-13.07 0,-7.22 5.85,-13.07 13.07,-13.07z"/>
  <path class="fil0" d="M23.68 17.84c-0.93,1.47 -2.3,3.43 -0.58,4.84 3.52,2.48 9.57,-5.65 12.48,-3.73 -2.3,-4.78 -7.72,0.63 -10.69,0.14 -0.8,-0.13 -0.97,-0.55 -1.21,-1.25z"/>
  <path class="fil0" d="M29.32 14.35c0.57,-0.76 1.47,0.07 2.17,0.75 0.7,0.69 2.61,1.01 1.87,-0.4l-1.18 -2.07c-1.74,-0.26 -2.02,0.59 -2.86,1.72z"/>
  <path class="fil0" d="M24.02 17.26c-0.03,0.05 -0.06,0.1 -0.09,0.15 0.03,-0.05 0.06,-0.1 0.09,-0.15z"/>
  <path class="fil0" d="M24.11 17.12c-0.01,0.02 -0.03,0.04 -0.04,0.07 0.01,-0.03 0.03,-0.05 0.04,-0.07z"/>
 </g>
</svg>
